<svg width="209" height="60" viewBox="0 0 209 60" fill="none" xmlns="http://www.w3.org/2000/svg">
<path d="M24.096 6.304V29.248C24.096 32.8 23.088 35.536 21.072 37.456C19.088 39.376 16.4 40.336 13.008 40.336C9.456 40.336 6.608 39.328 4.464 37.312C2.32 35.296 1.248 32.432 1.248 28.72H9.408C9.408 30.128 9.696 31.2 10.272 31.936C10.848 32.64 11.68 32.992 12.768 32.992C13.76 32.992 14.528 32.672 15.072 32.032C15.616 31.392 15.888 30.464 15.888 29.248V6.304H24.096ZM42.918 40.384C40.294 40.384 37.926 39.824 35.814 38.704C33.734 37.584 32.086 35.984 30.87 33.904C29.686 31.824 29.094 29.392 29.094 26.608C29.094 23.856 29.702 21.44 30.918 19.36C32.134 17.248 33.798 15.632 35.91 14.512C38.022 13.392 40.39 12.832 43.014 12.832C45.638 12.832 48.006 13.392 50.118 14.512C52.23 15.632 53.894 17.248 55.11 19.36C56.326 21.44 56.934 23.856 56.934 26.608C56.934 29.36 56.31 31.792 55.062 33.904C53.846 35.984 52.166 37.584 50.022 38.704C47.91 39.824 45.542 40.384 42.918 40.384ZM42.918 33.28C44.486 33.28 45.814 32.704 46.902 31.552C48.022 30.4 48.582 28.752 48.582 26.608C48.582 24.464 48.038 22.816 46.95 21.664C45.894 20.512 44.582 19.936 43.014 19.936C41.414 19.936 40.086 20.512 39.03 21.664C37.974 22.784 37.446 24.432 37.446 26.608C37.446 28.752 37.958 30.4 38.982 31.552C40.038 32.704 41.35 33.28 42.918 33.28ZM77.6565 40L69.4965 28.768V40H61.2885V4.48H69.4965V24.112L77.6085 13.216H87.7365L76.6005 26.656L87.8325 40H77.6565ZM116.208 26.176C116.208 26.944 116.16 27.744 116.064 28.576H97.4884C97.6164 30.24 98.1444 31.52 99.0724 32.416C100.032 33.28 101.2 33.712 102.576 33.712C104.624 33.712 106.048 32.848 106.848 31.12H115.584C115.136 32.88 114.32 34.464 113.136 35.872C111.984 37.28 110.528 38.384 108.768 39.184C107.008 39.984 105.04 40.384 102.864 40.384C100.24 40.384 97.9044 39.824 95.8564 38.704C93.8084 37.584 92.2084 35.984 91.0564 33.904C89.9044 31.824 89.3284 29.392 89.3284 26.608C89.3284 23.824 89.8884 21.392 91.0084 19.312C92.1604 17.232 93.7604 15.632 95.8084 14.512C97.8564 13.392 100.208 12.832 102.864 12.832C105.456 12.832 107.76 13.376 109.776 14.464C111.792 15.552 113.36 17.104 114.48 19.12C115.632 21.136 116.208 23.488 116.208 26.176ZM107.808 24.016C107.808 22.608 107.328 21.488 106.368 20.656C105.408 19.824 104.208 19.408 102.768 19.408C101.392 19.408 100.224 19.808 99.2644 20.608C98.3364 21.408 97.7604 22.544 97.5364 24.016H107.808ZM131.435 40.384C129.099 40.384 127.019 39.984 125.195 39.184C123.371 38.384 121.931 37.296 120.875 35.92C119.819 34.512 119.227 32.944 119.099 31.216H127.211C127.307 32.144 127.739 32.896 128.507 33.472C129.275 34.048 130.219 34.336 131.339 34.336C132.363 34.336 133.147 34.144 133.691 33.76C134.267 33.344 134.555 32.816 134.555 32.176C134.555 31.408 134.155 30.848 133.355 30.496C132.555 30.112 131.259 29.696 129.467 29.248C127.547 28.8 125.947 28.336 124.667 27.856C123.387 27.344 122.283 26.56 121.355 25.504C120.427 24.416 119.963 22.96 119.963 21.136C119.963 19.6 120.379 18.208 121.211 16.96C122.075 15.68 123.323 14.672 124.955 13.936C126.619 13.2 128.587 12.832 130.859 12.832C134.219 12.832 136.859 13.664 138.779 15.328C140.731 16.992 141.851 19.2 142.139 21.952H134.555C134.427 21.024 134.011 20.288 133.307 19.744C132.635 19.2 131.739 18.928 130.619 18.928C129.659 18.928 128.923 19.12 128.411 19.504C127.899 19.856 127.643 20.352 127.643 20.992C127.643 21.76 128.043 22.336 128.843 22.72C129.675 23.104 130.955 23.488 132.683 23.872C134.667 24.384 136.283 24.896 137.531 25.408C138.779 25.888 139.867 26.688 140.795 27.808C141.755 28.896 142.251 30.368 142.283 32.224C142.283 33.792 141.835 35.2 140.939 36.448C140.075 37.664 138.811 38.624 137.147 39.328C135.515 40.032 133.611 40.384 131.435 40.384ZM158.2 40.384C155.864 40.384 153.784 39.984 151.96 39.184C150.136 38.384 148.696 37.296 147.64 35.92C146.584 34.512 145.992 32.944 145.864 31.216H153.976C154.072 32.144 154.504 32.896 155.272 33.472C156.04 34.048 156.984 34.336 158.104 34.336C159.128 34.336 159.912 34.144 160.456 33.76C161.032 33.344 161.32 32.816 161.32 32.176C161.32 31.408 160.92 30.848 160.12 30.496C159.32 30.112 158.024 29.696 156.232 29.248C154.312 28.8 152.712 28.336 151.432 27.856C150.152 27.344 149.048 26.56 148.12 25.504C147.192 24.416 146.728 22.96 146.728 21.136C146.728 19.6 147.144 18.208 147.976 16.96C148.84 15.68 150.088 14.672 151.72 13.936C153.384 13.2 155.352 12.832 157.624 12.832C160.984 12.832 163.624 13.664 165.544 15.328C167.496 16.992 168.616 19.2 168.904 21.952H161.32C161.192 21.024 160.776 20.288 160.072 19.744C159.4 19.2 158.504 18.928 157.384 18.928C156.424 18.928 155.688 19.12 155.176 19.504C154.664 19.856 154.408 20.352 154.408 20.992C154.408 21.76 154.808 22.336 155.608 22.72C156.44 23.104 157.72 23.488 159.448 23.872C161.432 24.384 163.048 24.896 164.296 25.408C165.544 25.888 166.632 26.688 167.56 27.808C168.52 28.896 169.016 30.368 169.048 32.224C169.048 33.792 168.6 35.2 167.704 36.448C166.84 37.664 165.576 38.624 163.912 39.328C162.28 40.032 160.376 40.384 158.2 40.384ZM184.966 40.384C182.63 40.384 180.55 39.984 178.726 39.184C176.902 38.384 175.462 37.296 174.406 35.92C173.35 34.512 172.758 32.944 172.63 31.216H180.742C180.838 32.144 181.27 32.896 182.038 33.472C182.806 34.048 183.75 34.336 184.87 34.336C185.894 34.336 186.678 34.144 187.222 33.76C187.798 33.344 188.086 32.816 188.086 32.176C188.086 31.408 187.686 30.848 186.886 30.496C186.086 30.112 184.79 29.696 182.998 29.248C181.078 28.8 179.478 28.336 178.198 27.856C176.918 27.344 175.814 26.56 174.886 25.504C173.958 24.416 173.494 22.96 173.494 21.136C173.494 19.6 173.91 18.208 174.742 16.96C175.606 15.68 176.854 14.672 178.486 13.936C180.15 13.2 182.118 12.832 184.39 12.832C187.75 12.832 190.39 13.664 192.31 15.328C194.262 16.992 195.382 19.2 195.67 21.952H188.086C187.958 21.024 187.542 20.288 186.838 19.744C186.166 19.2 185.27 18.928 184.15 18.928C183.19 18.928 182.454 19.12 181.942 19.504C181.43 19.856 181.174 20.352 181.174 20.992C181.174 21.76 181.574 22.336 182.374 22.72C183.206 23.104 184.486 23.488 186.214 23.872C188.198 24.384 189.814 24.896 191.062 25.408C192.31 25.888 193.398 26.688 194.326 27.808C195.286 28.896 195.782 30.368 195.814 32.224C195.814 33.792 195.366 35.2 194.47 36.448C193.606 37.664 192.342 38.624 190.678 39.328C189.046 40.032 187.142 40.384 184.966 40.384Z" fill="#40169A"/>
<rect x="188" width="21" height="21" rx="10.5" fill="#FD1D60"/>
</svg>
