<svg width="38" height="36" viewBox="0 0 38 36" fill="none" xmlns="http://www.w3.org/2000/svg">
<path d="M21.9726 13.7832L22.1971 14.4742H22.9236H27.8582C29.7956 14.4742 30.6011 16.9534 29.0337 18.0922L25.0416 20.9926L24.4538 21.4197L24.6783 22.1107L26.2032 26.8037C26.8019 28.6463 24.6929 30.1786 23.1255 29.0398L19.1334 26.1393L18.5456 25.7123L17.9578 26.1393L13.9657 29.0398C12.3983 30.1786 10.2893 28.6463 10.888 26.8037L12.4129 22.1107L12.6374 21.4197L12.0496 20.9926L8.05748 18.0922C6.49006 16.9534 7.29561 14.4742 9.23305 14.4742H14.1676H14.8941L15.1186 13.7832L16.6435 9.09017C17.2422 7.24755 19.849 7.24755 20.4477 9.09017L21.9726 13.7832Z" fill="#FD1D60" stroke="#FD1D60" stroke-width="2"/>
</svg>
